<?xml version="1.0" standalone="no"?>
<!DOCTYPE svg PUBLIC "-//W3C//DTD SVG 20010904//EN"
        "http://www.w3.org/TR/2001/REC-SVG-20010904/DTD/svg10.dtd">
<svg version="1.0" xmlns="http://www.w3.org/2000/svg"
 width="1024.000000pt" height="1024.000000pt" viewBox="0 0 1024.000000 1024.000000"
 preserveAspectRatio="xMidYMid meet">

<g transform="translate(0.000000,1024.000000) scale(0.100000,-0.100000)"
fill="#000000" stroke="none">
<path d="M4483 8883 c-6 -43 -32 -184 -57 -314 -25 -130 -46 -248 -46 -261 0
-16 -27 -58 -74 -116 -90 -110 -116 -152 -116 -183 0 -32 -10 -45 -40 -54 -14
-4 -105 -36 -203 -72 l-178 -64 -39 33 c-21 19 -101 62 -177 97 l-138 64 -220
227 c-121 125 -225 228 -231 229 -6 0 -48 -24 -95 -55 -286 -192 -520 -352
-561 -382 l-47 -35 55 -101 c30 -56 93 -176 139 -267 l83 -166 -44 -223 -45
-223 -66 -74 -65 -73 -118 0 c-97 0 -131 -4 -194 -25 -130 -41 -146 -41 -307
0 -79 21 -209 57 -288 82 -79 24 -145 43 -146 41 -2 -2 -74 -144 -160 -317
-149 -299 -155 -314 -138 -330 256 -237 324 -298 401 -361 86 -70 91 -77 92
-113 0 -49 26 -176 51 -251 l20 -59 -36 -79 c-19 -43 -42 -102 -49 -131 l-13
-52 -154 -32 c-85 -17 -252 -51 -371 -75 l-218 -43 0 -376 0 -376 85 -7 c99
-8 632 -83 644 -91 5 -2 12 -17 16 -32 8 -34 72 -164 88 -179 7 -6 45 -14 85
-17 l74 -6 20 47 c11 26 22 48 23 50 7 8 218 -114 236 -136 30 -38 8 -39 -62
-2 l-61 32 -29 -28 c-33 -32 -38 -50 -9 -34 32 17 24 -4 -31 -76 -34 -45 -47
-70 -40 -77 7 -7 16 -3 30 14 10 13 22 22 24 19 3 -3 -13 -26 -36 -51 -23 -26
-55 -62 -70 -80 -16 -19 -43 -49 -60 -67 -26 -26 -29 -34 -18 -45 11 -10 12
-9 6 2 -6 10 -2 10 16 -2 22 -14 112 -37 144 -37 8 0 17 15 21 36 8 43 49 96
193 249 105 111 109 118 93 135 -30 31 -132 75 -117 50 5 -9 4 -11 -4 -6 -9 6
-8 13 3 31 14 21 13 32 -9 118 -29 114 -50 256 -66 429 l-11 126 48 61 49 61
6 -183 c9 -232 55 -522 85 -534 6 -2 83 30 170 73 88 42 201 96 252 120 75 35
92 47 88 61 -43 144 -60 577 -32 797 9 70 35 198 57 284 22 86 43 166 45 177
4 17 -13 29 -103 78 -149 80 -172 93 -192 111 -10 9 -21 13 -25 9 -4 -4 -4 0
0 10 3 9 2 17 -3 17 -5 0 -51 27 -103 60 -52 33 -99 60 -103 60 -4 0 -13 5
-20 10 -7 6 -28 24 -47 40 -19 16 -43 32 -52 36 -20 6 -23 20 -8 29 6 4 8 11
4 16 -3 6 -15 4 -30 -5 -32 -22 -36 -20 -32 14 2 19 -3 34 -12 40 -21 14 -30
12 -30 -5 0 -20 -24 -19 -41 1 -7 9 -46 41 -86 71 -76 57 -128 121 -135 163
-3 22 1 25 34 28 43 4 117 -31 196 -91 32 -24 57 -36 62 -31 5 5 31 64 57 132
l49 122 132 89 c73 49 132 85 132 80 0 -4 -9 -75 -20 -156 -41 -304 -57 -438
-51 -448 3 -5 11 32 18 84 10 79 20 106 59 179 118 219 263 408 497 649 l70
72 -21 50 c-12 27 -19 57 -16 66 4 10 -1 22 -16 32 -20 14 -22 22 -18 105 2
74 6 92 22 103 12 10 17 21 13 36 -8 29 35 113 78 153 l34 31 -55 128 c-30 71
-54 131 -54 135 0 4 42 -36 94 -87 l95 -94 77 23 78 23 14 -22 c11 -16 24 -21
62 -21 33 0 50 5 54 15 8 22 41 18 107 -11 51 -23 59 -31 59 -53 0 -35 54 -79
75 -61 13 11 14 10 86 -83 16 -20 16 -20 160 38 252 101 565 194 712 211 l57
7 0 -40 0 -40 -107 -22 c-214 -44 -450 -121 -690 -224 l-123 -52 0 -41 c0 -34
4 -43 21 -47 19 -5 21 -10 15 -54 -10 -70 -15 -80 -36 -86 -14 -3 -20 -14 -20
-32 0 -15 -15 -51 -32 -81 -29 -46 -37 -53 -64 -54 -34 0 -50 -13 -56 -45 -4
-27 -137 -83 -149 -64 -9 15 -92 13 -97 -2 -5 -12 -50 -11 -112 2 -37 8 -50
15 -50 29 0 10 -8 20 -17 23 -10 4 -30 16 -45 28 -27 22 -27 22 -63 3 -93 -49
-358 -352 -489 -558 -60 -93 -198 -364 -194 -380 2 -8 55 -56 118 -106 63 -51
157 -131 208 -178 51 -47 96 -81 101 -76 4 5 27 54 51 109 294 673 905 1176
1640 1350 248 58 595 76 846 42 391 -53 787 -216 1139 -470 91 -65 225 -178
225 -189 0 -4 -81 -8 -181 -8 -182 0 -412 -16 -438 -30 -7 -4 27 -10 78 -14
l91 -8 0 -58 0 -58 37 -7 c20 -4 158 -5 307 -4 l269 3 48 -54 c27 -31 43 -56
36 -58 -6 -1 -59 -6 -117 -11 l-105 -8 127 -2 c72 0 129 -5 133 -11 4 -6 128
-10 341 -10 l334 0 -25 51 c-71 139 -297 441 -483 645 -56 62 -102 118 -102
125 0 8 -16 25 -35 39 -19 14 -34 27 -34 30 0 3 12 20 28 39 l28 34 26 -19
c17 -13 24 -26 21 -39 -3 -15 19 -43 87 -110 139 -137 310 -348 459 -564 l45
-66 138 -3 137 -3 6 -39 c8 -49 8 -49 174 -11 69 16 126 28 127 27 1 -1 -26
-31 -62 -66 l-64 -64 -128 0 -128 -1 -3 -81 -3 -81 38 -7 c21 -3 87 -6 146 -6
l108 0 -3 -77 -3 -78 -67 -3 -68 -3 0 -49 0 -50 89 0 c104 0 101 4 101 -128
l0 -83 103 3 102 3 7 133 c6 123 8 135 29 149 39 28 479 430 479 438 0 1 -30
65 -66 141 -36 77 -102 218 -146 314 -44 96 -82 176 -83 178 -2 2 -67 -17
-144 -42 -78 -25 -209 -62 -291 -83 l-150 -37 -120 33 c-81 22 -152 35 -221
38 l-101 6 -49 59 c-27 33 -55 71 -63 87 -14 26 -52 207 -76 361 l-12 75 141
258 c78 142 138 263 135 269 -7 11 -675 455 -699 464 -8 3 -30 -13 -52 -38
-95 -109 -392 -402 -428 -423 -22 -13 -92 -47 -155 -74 -62 -28 -128 -64 -145
-80 l-30 -29 -75 29 c-41 16 -141 52 -222 80 l-148 52 0 34 c0 37 -25 79 -122
201 -38 49 -58 82 -58 100 0 15 -24 151 -54 302 -30 151 -56 291 -58 310 l-3
35 -406 3 -405 2 -11 -77z m447 -359 c26 -157 26 -154 -9 -154 -54 0 -41 -17
17 -23 97 -9 199 -37 225 -61 14 -13 33 -49 43 -80 15 -46 22 -56 40 -56 12 0
37 -12 56 -27 48 -38 118 -106 118 -114 0 -3 -33 0 -72 7 -116 21 -108 25
-108 -63 0 -140 -41 -260 -102 -307 -30 -22 -144 -66 -173 -66 -6 0 -20 -52
-34 -125 -12 -69 -24 -125 -26 -125 -2 0 -13 56 -26 124 l-22 123 -71 21
c-161 47 -188 96 -212 375 -6 67 -6 68 -25 51 -10 -9 -24 -32 -31 -50 -11 -31
-16 -34 -50 -34 -21 0 -38 4 -38 9 0 14 96 154 130 191 16 17 32 41 35 53 20
72 38 96 88 117 27 12 74 24 104 27 29 3 56 10 59 15 3 5 14 68 25 141 20 134
30 180 35 162 2 -5 12 -64 24 -131z m2106 -655 c-19 -41 -48 -105 -65 -142
l-31 -69 -45 47 c-26 25 -44 52 -42 58 4 13 209 188 214 183 2 -1 -12 -36 -31
-77z m-1626 -58 c217 -51 425 -121 626 -212 l112 -50 -11 -37 c-6 -20 -12 -38
-13 -40 -1 -1 -37 14 -80 33 -197 91 -407 164 -604 210 -63 15 -132 32 -153
37 -34 8 -38 12 -33 31 3 12 6 30 6 40 0 22 3 22 150 -12z m1223 -32 c10 -38
-2 -49 -54 -49 l-49 0 0 35 0 35 49 0 c41 0 50 -3 54 -21z m-208 -35 c9 -14
15 -27 13 -28 -2 -1 -20 -14 -41 -30 l-38 -27 -19 23 c-26 31 -25 34 18 62 47
31 46 31 67 0z m384 -11 l40 -26 -17 -29 c-9 -15 -19 -28 -22 -28 -4 0 -74 44
-89 56 -6 5 29 54 38 54 5 0 27 -12 50 -27z m-219 -89 c0 -9 11 -14 30 -14 69
0 154 -70 191 -157 25 -58 25 -154 0 -208 -22 -48 -72 -99 -126 -128 -54 -29
-163 -30 -220 -2 -190 93 -204 355 -25 463 58 34 103 39 108 11 2 -11 -6 -18
-26 -22 -45 -9 -115 -68 -139 -117 -76 -154 42 -326 210 -307 103 13 187 111
187 219 0 104 -97 208 -195 208 -23 0 -25 3 -25 46 0 40 2 45 15 34 8 -7 15
-19 15 -26z m-2186 -20 c12 -31 5 -40 -36 -51 -24 -7 -50 -14 -59 -18 -10 -4
-19 3 -28 21 -6 15 -10 27 -9 28 7 5 104 34 114 35 7 1 15 -6 18 -15z m1039
-5 c31 -8 37 -14 37 -36 0 -24 -2 -25 -32 -18 -18 3 -50 9 -70 12 -31 5 -38
10 -38 28 0 39 4 40 103 14z m831 2 c16 -17 16 -21 -5 -57 -13 -22 -24 -41
-25 -42 -4 -7 -53 33 -54 42 0 16 44 76 56 76 6 0 19 -8 28 -19z m683 -68 l24
-42 -30 -15 c-16 -9 -32 -16 -34 -16 -2 0 -9 18 -16 40 -6 21 -16 42 -22 46
-13 8 21 35 39 31 8 -1 25 -21 39 -44z m-2797 -28 c0 -10 -110 -59 -116 -52
-1 1 -5 13 -8 27 -6 23 -2 27 46 46 47 18 54 19 66 5 6 -8 12 -20 12 -26z
m1517 28 c44 -14 53 -21 53 -40 0 -27 -24 -40 -43 -25 -6 5 -30 15 -53 21 -37
10 -41 14 -36 36 5 30 9 30 79 8z m997 -27 c78 -59 96 -150 47 -228 -49 -76
-128 -116 -201 -99 -36 8 -31 14 25 26 54 12 122 63 144 109 23 46 27 81 11
91 -6 4 -10 -6 -10 -22 0 -70 -113 -163 -198 -163 -74 0 -126 91 -102 180 13
47 62 107 105 127 49 22 136 12 179 -21z m-2760 -72 c11 -28 7 -33 -45 -57
l-50 -25 -11 24 c-13 28 -15 25 37 52 49 26 61 27 69 6z m2016 -9 c54 -27 57
-32 37 -59 -12 -16 -16 -15 -62 10 -28 14 -51 27 -52 28 -6 5 11 46 18 46 6 0
32 -11 59 -25z m287 -9 c1 -1 -1 -20 -4 -44 -5 -40 -7 -42 -39 -42 -33 0 -34
1 -34 43 0 24 3 47 7 51 6 5 61 -1 70 -8z m774 -56 c16 0 19 -7 19 -44 0 -25
-3 -47 -7 -49 -5 -2 -23 0 -42 5 -31 8 -33 12 -27 40 3 17 6 37 6 45 0 10 6
13 16 9 9 -3 24 -6 35 -6z m-735 -208 c-5 -7 -18 -18 -28 -23 -16 -8 -21 -3
-38 36 -11 26 -20 48 -20 51 0 2 12 10 28 18 27 14 27 14 47 -27 14 -29 18
-46 11 -55z m105 -86 c15 -13 34 -26 40 -28 8 -3 7 -13 -5 -36 l-16 -31 -45
27 c-25 15 -45 31 -45 35 0 9 32 56 39 57 2 0 16 -11 32 -24z m443 -38 c9 -17
15 -32 14 -33 -2 -2 -22 -12 -45 -24 l-42 -21 -16 31 c-9 17 -15 32 -13 33 25
17 75 46 80 46 3 0 14 -14 22 -32z m-194 -63 l0 -35 -55 0 -55 0 0 35 0 35 55
0 55 0 0 -35z m-3630 -94 c0 -4 -17 -23 -37 -42 l-38 -36 -23 23 -23 22 43 41
43 41 18 -21 c9 -12 17 -24 17 -28z m3955 2 l40 -45 -23 -18 c-23 -19 -23 -18
-64 26 -40 43 -40 45 -23 64 10 11 21 20 24 19 3 0 24 -21 46 -46z m-4125
-166 c0 -5 -21 -36 -47 -67 -39 -49 -50 -57 -65 -49 -27 15 -22 31 30 97 43
55 48 59 65 44 9 -8 17 -19 17 -25z m4295 -31 c36 -45 46 -63 38 -75 -18 -29
-32 -22 -78 40 -43 59 -45 63 -29 80 10 11 18 18 19 17 1 -2 24 -30 50 -62z
m-5241 -571 c27 -17 67 -45 90 -64 22 -19 62 -47 88 -63 l47 -29 -132 -158
c-73 -87 -149 -179 -170 -205 -27 -33 -62 -58 -119 -87 -44 -22 -82 -39 -84
-36 -6 6 218 678 225 675 3 -2 28 -17 55 -33z m256 -223 c0 -16 -13 -75 -29
-133 -55 -200 -85 -344 -97 -466 l-7 -73 26 0 c17 0 35 12 56 38 34 41 253
243 258 238 5 -4 -84 -255 -136 -384 -47 -117 -123 -270 -116 -232 3 14 10 57
15 95 6 39 13 79 16 90 4 17 1 16 -18 -6 -45 -51 -220 -261 -297 -357 -44 -53
-93 -110 -109 -126 l-31 -29 -31 27 c-17 14 -36 26 -41 26 -22 0 -4 27 67 103
122 132 396 468 334 410 -10 -9 -17 -10 -27 -2 -16 14 -122 -91 -297 -293
l-119 -137 -30 15 -29 16 34 36 c19 21 50 57 70 82 19 25 66 79 103 120 37 41
99 111 136 156 l69 81 15 119 c14 109 64 342 102 473 14 50 81 141 104 141 5
0 9 -13 9 -28z m-651 -1119 c-18 -27 -33 -49 -34 -50 0 -1 -55 8 -121 21 -65
13 -117 25 -114 26 9 3 264 47 283 49 15 1 13 -7 -14 -46z"/>
<path d="M4782 8265 c-103 -19 -119 -32 -129 -102 -4 -32 -8 -123 -8 -202 l0
-145 120 -53 c66 -29 130 -53 143 -53 29 0 242 97 260 119 17 20 10 171 -14
304 -13 68 -21 91 -38 102 -53 35 -227 50 -334 30z m265 -45 c42 -9 52 -16 57
-36 13 -48 35 -228 30 -236 -3 -4 -63 -8 -135 -8 l-129 0 0 151 0 152 63 -6
c34 -3 85 -11 114 -17z m-209 -88 l3 -82 -82 0 -81 0 6 48 c14 100 15 101 54
107 20 4 44 8 52 10 41 9 45 2 48 -83z"/>
<path d="M1792 5975 c-10 -21 -8 -29 12 -52 21 -24 27 -26 52 -18 55 20 39 95
-20 95 -25 0 -35 -6 -44 -25z m73 -25 c0 -8 -8 -16 -17 -18 -13 -2 -18 3 -18
18 0 15 5 20 18 18 9 -2 17 -10 17 -18z"/>
<path d="M4130 8324 c-176 -47 -605 -196 -628 -218 -5 -6 156 -96 172 -96 8 0
35 33 61 73 45 71 47 72 115 93 66 21 70 21 85 4 13 -15 136 -80 150 -80 9 0
145 180 155 204 20 55 22 55 -110 20z"/>
<path d="M5565 8293 c9 -20 41 -71 73 -112 31 -41 60 -79 64 -85 4 -5 20 -3
40 6 18 9 49 23 70 31 20 8 45 24 57 36 l20 20 57 -19 c31 -11 65 -20 74 -20
10 0 24 -19 38 -52 12 -29 31 -64 42 -78 l19 -25 83 40 c46 22 87 43 92 47 22
18 -339 153 -570 213 -75 19 -145 35 -155 35 -18 0 -18 -2 -4 -37z"/>
<path d="M3843 8068 c-20 -10 -23 -19 -23 -70 0 -32 2 -58 4 -58 4 0 126 36
154 45 10 4 4 18 -19 50 -27 37 -38 45 -63 44 -17 0 -41 -5 -53 -11z"/>
<path d="M5850 8038 c-10 -24 -16 -46 -12 -49 7 -6 139 -59 147 -59 3 0 5 25
5 55 0 62 -14 77 -83 89 -37 7 -38 6 -57 -36z"/>
<path d="M2963 7701 c-23 -19 -29 -31 -15 -31 15 1 67 50 52 50 -8 -1 -25 -9
-37 -19z"/>
<path d="M3138 7586 c-57 -20 -85 -42 -116 -88 -24 -37 -27 -51 -27 -122 0
-71 3 -86 27 -119 57 -84 163 -122 254 -91 111 37 169 120 162 231 -5 83 -42
137 -117 176 -61 30 -122 35 -183 13z m114 -76 c29 0 84 -62 92 -104 8 -42
-11 -91 -48 -125 -35 -33 -112 -35 -153 -5 -68 50 -79 131 -27 194 25 30 77
52 102 44 8 -2 23 -4 34 -4z"/>
<path d="M3167 7422 c-23 -25 -21 -58 3 -82 27 -27 56 -25 86 5 25 26 26 52 2
83 -16 18 -72 15 -91 -6z"/>
<path d="M2204 7318 c-180 -185 -351 -374 -343 -383 4 -3 61 6 162 26 l57 12
0 38 c0 30 6 44 27 62 46 38 81 79 94 108 11 28 12 28 92 26 l82 -2 16 75 c26
113 24 125 -15 149 -18 12 -35 21 -38 21 -2 0 -62 -60 -134 -132z"/>
<path d="M7404 7419 l-20 -19 24 -95 25 -95 77 0 76 0 12 -34 c7 -19 36 -55
63 -80 41 -36 52 -54 56 -85 l5 -39 82 -15 c44 -8 83 -13 85 -11 4 3 -88 106
-290 324 -53 58 -109 120 -124 138 -31 36 -42 38 -71 11z"/>
<path d="M2871 7346 c-1 -11 7 -44 16 -75 13 -43 31 -70 75 -114 74 -75 129
-99 241 -105 83 -4 91 -3 152 27 70 35 137 101 154 154 l10 32 -17 -25 c-40
-58 -95 -108 -149 -136 -51 -25 -69 -29 -143 -29 -70 0 -94 4 -134 24 -92 46
-145 105 -182 205 -13 34 -23 52 -23 42z"/>
<path d="M2220 7060 c-37 -73 -21 -101 48 -84 41 10 82 61 82 100 0 22 -4 24
-55 24 -54 0 -55 -1 -75 -40z"/>
<path d="M7460 7072 c0 -55 70 -112 117 -95 l22 8 -22 55 c-22 55 -22 55 -70
58 -46 3 -47 2 -47 -26z"/>
<path d="M1998 6375 c-26 -57 45 -113 84 -65 22 27 23 39 2 68 -22 32 -71 30
-86 -3z m70 -28 c2 -12 -3 -17 -17 -17 -15 0 -21 6 -21 21 0 25 33 22 38 -4z"/>
<path d="M1680 6346 c0 -26 59 -81 72 -68 10 10 3 20 -50 66 -20 18 -22 18
-22 2z"/>
<path d="M1807 6253 c-14 -13 -6 -33 13 -33 11 0 20 4 20 9 0 13 -26 32 -33
24z"/>
<path d="M4858 6092 l-38 -103 0 -800 0 -799 1313 -2 c721 -1 1488 -2 1704 -3
215 0 393 -2 395 -5 2 -3 2 -34 -1 -70 l-6 -66 -157 1 c-86 0 -159 -3 -163 -6
-6 -7 -34 -225 -34 -269 0 -20 15 -36 70 -74 63 -45 68 -51 54 -66 -20 -23
-20 -23 25 -75 44 -51 52 -90 20 -98 -31 -8 -19 -97 14 -97 8 0 16 -14 20 -34
7 -37 -8 -91 -23 -81 -6 3 -13 -11 -16 -32 -13 -81 -15 -84 -34 -78 -13 4 -26
-3 -41 -22 -20 -25 -21 -42 -5 -85 3 -7 -9 -23 -28 -35 -17 -13 -42 -30 -55
-39 -17 -13 -26 -14 -34 -6 -7 7 -25 12 -41 12 -23 0 -31 -6 -40 -30 -9 -23
-18 -30 -38 -30 -14 0 -46 -3 -70 -6 -39 -5 -45 -3 -54 18 -14 32 -51 35 -81
7 -23 -22 -24 -22 -57 -4 -19 10 -38 16 -44 14 -5 -2 -45 -47 -88 -99 -171
-208 -408 -443 -484 -481 -14 -7 -28 -14 -30 -16 -2 -1 15 -34 38 -72 22 -38
41 -74 41 -78 0 -5 -39 -36 -87 -68 -49 -33 -94 -63 -100 -68 -9 -7 -15 -2
-21 14 -7 19 -3 31 21 62 19 22 27 41 21 46 -5 5 -35 16 -66 25 -59 17 -88 44
-88 81 1 13 32 43 93 90 118 91 145 107 166 100 36 -11 318 272 457 460 40 55
106 144 145 198 l71 98 22 -20 c47 -44 114 -52 175 -21 96 48 123 152 68 253
-50 90 -174 109 -265 41 -41 -32 -59 -67 -68 -132 -6 -51 -8 -53 -77 -97 -39
-25 -76 -45 -83 -45 -6 0 -14 14 -18 31 -10 53 -7 69 13 69 21 0 31 19 31 56
0 19 -5 24 -25 24 -22 0 -25 4 -25 33 0 17 3 42 6 54 5 18 10 20 30 13 19 -8
27 -5 44 17 25 32 25 51 0 78 l-20 22 30 38 c16 21 30 42 30 46 0 5 8 9 18 9
9 0 48 18 86 40 38 23 75 39 82 36 7 -3 26 -27 41 -54 28 -48 28 -48 58 -36
17 7 46 13 66 14 l36 0 35 175 c19 97 32 177 29 179 -11 7 -524 7 -577 0 l-51
-6 -26 -93 c-35 -125 -78 -231 -164 -407 l-72 -148 79 0 80 0 0 -60 0 -60
-1927 -1 c-1090 -1 -1902 -5 -1868 -10 172 -24 652 -61 890 -69 149 -5 786 -9
1418 -10 631 0 1147 -3 1147 -6 0 -18 -82 -112 -187 -215 -280 -273 -602 -460
-983 -568 -523 -149 -1113 -116 -1600 89 -368 155 -663 377 -921 692 -215 263
-364 548 -450 858 -17 63 -34 118 -38 123 -4 4 -77 -75 -162 -174 -84 -100
-173 -204 -197 -231 -23 -28 -42 -54 -42 -58 0 -5 13 -21 29 -37 32 -33 101
-59 127 -49 23 9 135 -109 132 -139 -4 -31 34 -135 49 -135 9 0 13 -19 13 -70
0 -52 -3 -70 -14 -70 -7 0 -21 -21 -31 -47 -10 -27 -22 -54 -28 -60 -28 -36
127 -250 355 -489 90 -95 166 -172 171 -173 4 -1 7 6 7 15 0 13 7 15 29 11 34
-7 44 8 35 51 -4 17 -1 32 8 39 20 16 66 24 73 13 14 -22 35 -10 35 20 0 24 5
31 28 36 15 3 35 8 45 11 13 3 20 -2 24 -16 7 -26 63 -31 63 -6 0 18 21 19 73
4 29 -8 37 -15 37 -34 0 -30 14 -39 38 -24 16 10 24 8 51 -12 26 -19 31 -28
26 -49 -6 -28 21 -64 44 -58 6 2 21 -14 34 -35 l22 -38 -22 -17 c-19 -14 -21
-23 -15 -47 6 -25 21 -36 90 -70 101 -50 107 -56 93 -84 -14 -26 -20 -26 -82
0 -42 19 -49 25 -49 50 0 16 -4 29 -8 29 -14 0 -32 -24 -32 -42 0 -12 -6 -18
-17 -16 -13 2 -19 -5 -21 -24 -2 -16 1 -28 7 -28 19 0 12 -26 -15 -51 -14 -13
-37 -24 -52 -24 -19 0 -27 -6 -31 -23 -4 -13 -24 -33 -50 -47 -49 -29 -66 -31
-57 -10 4 12 -3 15 -34 13 -32 -1 -40 -5 -40 -20 0 -14 -8 -18 -37 -18 -43 0
-57 7 -66 33 -9 25 -34 32 -63 17 -22 -12 -27 -11 -59 20 -20 19 -35 44 -35
57 0 13 -6 23 -13 23 -27 0 -50 39 -51 87 -1 42 -4 48 -23 51 -19 3 -23 10
-23 42 0 29 4 39 20 43 13 3 20 14 20 29 0 17 -12 30 -53 52 -76 42 -331 304
-457 467 l-104 137 -35 -24 c-49 -32 -122 -56 -141 -47 -8 4 -47 7 -86 8 -62
0 -80 5 -148 40 -101 52 -106 58 -71 95 l28 29 -28 78 c-36 100 -40 105 -71
91 -27 -13 -27 -13 11 -105 13 -32 21 -62 18 -66 -6 -10 -33 11 -33 25 0 6
-12 37 -26 69 -23 50 -31 59 -53 60 -30 1 -21 5 31 14 36 6 68 27 68 45 0 18
-31 39 -48 33 -9 -4 -35 -19 -57 -34 l-40 -28 -145 34 c-156 37 -177 40 -182
25 -3 -10 -84 -95 -256 -271 l-104 -107 79 -118 c44 -66 135 -205 202 -311
l122 -192 97 46 c117 54 225 102 349 153 l92 38 108 -19 c192 -33 247 -40 304
-37 l57 3 66 -83 66 -84 0 -67 c0 -37 7 -92 16 -122 47 -157 47 -143 1 -259
-22 -58 -87 -197 -144 -309 -95 -188 -102 -205 -86 -217 20 -14 456 -289 591
-372 48 -29 91 -51 97 -50 13 4 340 347 476 500 17 18 65 41 154 73 170 62
203 79 211 110 8 34 24 33 189 -19 l140 -44 7 -45 c7 -53 19 -72 115 -193 62
-78 73 -97 73 -130 0 -21 22 -153 50 -293 27 -141 53 -281 57 -311 l8 -55 406
-3 406 -2 6 62 c3 35 26 167 51 293 25 127 48 257 52 290 6 54 12 67 64 130
88 108 111 149 119 206 l6 52 144 43 c79 25 146 42 148 40 3 -2 12 -19 21 -38
15 -28 29 -37 107 -65 254 -89 230 -75 350 -208 59 -66 167 -184 239 -262
l130 -142 36 22 c53 32 612 395 633 411 16 13 12 25 -67 187 -105 218 -185
407 -187 445 -1 16 5 79 14 139 9 61 19 135 22 166 5 48 14 68 58 127 l52 71
70 1 c39 0 104 7 145 15 41 7 121 22 178 33 l103 20 112 -50 c62 -28 186 -83
276 -124 90 -41 165 -73 166 -72 30 52 348 550 376 591 l20 27 -143 158 c-78
86 -200 218 -270 293 l-127 136 10 102 c6 57 9 105 6 107 -2 2 -41 10 -86 16
-88 13 -85 9 -60 76 8 20 15 22 83 22 89 0 91 2 158 140 l43 89 65 11 c134 24
465 70 551 76 l89 7 0 377 0 378 -142 27 c-146 27 -511 102 -538 110 -11 4
-21 36 -34 112 -10 60 -20 114 -22 121 -2 9 -43 12 -157 12 -168 0 -217 -6
-217 -25 0 -18 34 -25 128 -25 l82 0 0 -30 0 -30 60 7 60 6 0 -67 0 -66 -79 0
-78 0 -7 -31 c-3 -17 -6 -49 -6 -70 l0 -39 69 0 c80 0 81 -1 81 -91 l0 -59
-85 0 -86 0 3 -102 3 -103 162 -5 c89 -3 165 -8 169 -13 4 -4 3 -24 -2 -45 -8
-34 -12 -37 -54 -44 -25 -3 -75 -7 -112 -7 l-68 -1 0 -45 0 -45 -960 0 -960 0
0 38 c0 20 -4 42 -8 49 -6 9 -80 15 -252 22 -461 19 -714 35 -689 42 53 16
702 31 1567 36 l912 6 0 83 0 84 -599 0 -598 0 -6 41 c-3 23 -11 45 -17 49 -6
4 -84 10 -173 14 -251 11 -726 42 -732 48 -6 6 147 14 515 28 151 6 319 15
373 20 54 6 370 10 702 10 l605 0 0 85 0 85 -824 0 -824 0 -7 38 -6 38 -257
12 c-141 7 -322 15 -402 18 -80 4 -151 10 -158 13 -7 4 81 13 195 19 576 34
853 42 1491 42 l662 0 0 90 0 90 -572 2 -573 3 -3 32 c-3 31 -4 32 -65 37 -34
3 -132 8 -217 11 -85 3 -209 10 -275 16 -66 5 -223 18 -348 28 -125 10 -230
21 -234 25 -3 3 11 6 33 6 21 0 140 7 264 15 546 35 849 47 1202 45 202 0 406
2 453 6 l85 7 0 83 0 83 -422 5 c-233 3 -806 9 -1274 12 l-851 5 -7 -727 c-3
-399 -10 -733 -15 -741 -9 -18 -20 356 -22 771 -1 166 -5 411 -8 546 l-6 245
-37 -103z m-3033 -2859 c3 -16 16 -38 27 -50 l21 -22 -29 -12 c-41 -16 -205
-69 -212 -69 -4 0 34 41 83 90 49 50 93 90 96 90 4 0 10 -12 14 -27z m989
-217 c37 -45 38 -47 21 -66 -10 -11 -22 -17 -27 -14 -4 3 -31 35 -58 71 -48
64 -49 67 -33 85 17 19 18 19 38 -5 11 -13 37 -45 59 -71z m4250 42 c8 -13 0
-28 -38 -72 -49 -58 -65 -66 -86 -41 -14 17 -9 26 49 88 46 49 57 53 75 25z
m-4072 -205 c35 -34 37 -38 21 -55 -23 -26 -37 -23 -72 17 -36 42 -37 44 -13
61 23 18 21 19 64 -23z m3871 9 c16 -17 14 -21 -28 -62 -44 -43 -45 -43 -65
-25 -20 18 -20 18 18 61 42 48 52 51 75 26z m-511 -208 c6 -9 25 -5 78 17 43
18 96 32 137 35 l68 6 -75 -44 c-109 -64 -120 -72 -120 -83 0 -5 34 -59 75
-120 74 -110 113 -185 96 -185 -5 0 -17 12 -26 28 -10 15 -34 50 -55 77 -20
28 -61 83 -90 123 -29 39 -55 72 -57 72 -7 0 19 -44 92 -155 190 -288 275
-439 440 -775 l46 -95 -57 60 c-32 33 -108 112 -169 175 -60 63 -157 164 -215
223 l-104 108 -41 -22 c-22 -12 -51 -31 -64 -41 -13 -10 -30 -18 -37 -18 -7 0
-41 40 -76 90 -35 49 -65 89 -68 89 -3 0 -21 -27 -40 -60 -31 -55 -35 -59 -47
-42 -20 26 -54 140 -60 199 -6 55 3 78 57 153 l32 43 27 -33 28 -33 89 64 c49
35 91 65 93 67 2 2 -18 51 -45 110 -27 58 -51 111 -53 117 -4 12 129 -129 141
-150z m-1417 -439 c15 -99 28 -190 31 -201 3 -19 15 -23 88 -34 122 -17 236 8
236 53 0 39 52 130 89 155 112 74 243 41 309 -78 15 -27 34 -50 42 -50 8 0 2
-7 -15 -16 -16 -8 -33 -20 -37 -27 -4 -7 -11 0 -18 18 -39 105 -170 145 -243
76 -47 -43 -59 -76 -55 -153 l3 -70 -130 -68 -130 -68 -5 -53 -6 -54 -4 74
c-3 40 -3 77 0 81 3 4 33 22 68 39 34 17 62 33 62 36 0 2 -25 -5 -57 -16 -37
-12 -83 -19 -135 -19 l-78 0 0 -96 0 -96 33 7 c57 12 62 11 65 -16 4 -32 -21
-59 -53 -59 -22 0 -23 -4 -30 -92 -13 -186 -52 -494 -61 -486 -7 8 -73 518
-74 571 0 4 -6 7 -13 7 -16 0 -181 84 -221 113 l-30 21 32 8 32 9 0 79 c0 75
-1 80 -22 84 -13 3 -81 15 -153 26 -284 48 -643 160 -845 266 l-51 27 23 26
c13 14 24 28 25 30 2 2 52 -17 113 -43 332 -142 794 -255 925 -227 27 6 84 13
126 16 l76 6 7 72 c13 146 39 318 47 310 4 -4 20 -89 34 -188z m-1982 98 c18
-21 73 -80 123 -133 116 -121 186 -201 203 -233 11 -21 10 -31 -9 -76 -40 -92
-122 -141 -213 -127 -58 9 -120 54 -147 106 -31 61 -52 166 -45 224 9 76 47
276 51 276 3 0 19 -17 37 -37z m1040 -17 c20 -6 22 -25 4 -50 -12 -17 -15 -17
-60 5 -35 17 -47 29 -47 45 0 29 17 34 55 18 17 -7 38 -15 48 -18z m300 -83
l158 -38 -3 -30 c-3 -28 -6 -30 -38 -27 -44 3 -282 62 -293 72 -9 8 1 60 12
60 3 0 77 -17 164 -37z m-1366 -479 c4 -11 -77 -118 -83 -111 -6 6 39 111 51
119 12 9 28 5 32 -8z"/>
<path d="M6335 2368 c-53 -29 -70 -91 -40 -148 20 -40 53 -60 95 -60 67 0 117
84 91 152 -20 53 -98 83 -146 56z"/>
<path d="M3022 1954 c-51 -36 -12 -144 53 -144 35 0 75 42 75 78 0 44 -35 82
-74 82 -17 0 -42 -7 -54 -16z"/>
<path d="M4560 6082 c-65 -39 -179 -76 -396 -131 -314 -79 -428 -129 -541
-234 -18 -17 -33 -35 -33 -40 0 -4 174 -5 389 -1 l389 7 6 -54 c8 -71 24 -518
32 -891 l7 -298 -57 0 -56 0 1 383 c1 210 4 487 8 616 l6 234 -150 -6 c-176
-7 -616 -60 -727 -87 -108 -27 -154 -52 -178 -100 -37 -73 -48 -70 218 -70
259 0 622 -15 680 -27 21 -5 -187 -10 -463 -13 l-500 -5 -3 -24 c-7 -49 6 -51
365 -51 l333 0 0 -73 c0 -41 -3 -122 -7 -180 -5 -90 -9 -107 -22 -107 -25 0
-671 -137 -708 -150 -38 -14 -47 -40 -58 -161 -6 -66 -4 -77 10 -83 9 -3 21
-4 26 0 17 10 9 -8 -11 -24 -12 -10 -22 -30 -23 -47 -2 -26 2 -30 27 -33 l28
-4 -32 -33 c-36 -37 -37 -64 -1 -81 l23 -12 -21 -11 c-15 -9 -21 -21 -21 -48
l0 -36 80 7 c44 3 80 5 80 2 0 -2 -37 -15 -82 -30 -46 -14 -89 -30 -97 -35
-12 -7 -14 -36 -12 -138 2 -108 6 -135 24 -172 38 -76 50 -81 210 -81 l139 0
-6 28 c-23 98 -29 176 -19 246 32 226 210 387 426 386 328 -2 542 -330 420
-646 -4 -12 66 -14 511 -14 284 0 516 2 516 4 0 2 -7 23 -17 47 -26 70 -22
225 9 324 l25 80 -333 3 -334 2 0 44 0 44 -62 20 c-35 11 -94 32 -133 46 l-70
25 138 1 137 0 0 645 0 645 -40 0 c-45 0 -49 7 -21 36 10 11 23 30 30 41 12
24 15 254 3 313 l-7 35 -55 -33z m610 -2217 l0 -25 -395 0 c-383 0 -395 1
-395 19 0 11 6 22 13 24 6 3 184 6 395 6 l382 1 0 -25z"/>
<path d="M1276 5717 c-35 -145 -45 -203 -37 -214 3 -5 25 -23 49 -42 23 -18
42 -39 42 -47 0 -35 20 -7 50 72 l33 85 -21 45 c-16 32 -22 63 -22 112 0 64
-2 70 -30 90 -16 12 -30 22 -32 22 -2 0 -16 -55 -32 -123z"/>
<path d="M8428 5813 c-24 -27 -26 -33 -23 -133 2 -87 7 -117 30 -177 l27 -72
39 37 38 37 -34 160 c-19 88 -35 163 -35 168 0 14 -17 6 -42 -20z"/>
<path d="M3205 5228 c-7 -22 -45 -310 -45 -345 0 -38 1 -38 68 -17 41 14 52
22 56 43 11 51 26 299 20 315 -8 20 -92 23 -99 4z"/>
<path d="M3760 4294 c-162 -43 -270 -199 -257 -372 9 -125 82 -234 201 -303
l51 -29 -255 -1 c-168 -1 -233 -5 -190 -9 152 -17 3306 -5 3240 13 l-35 9 31
16 c132 72 215 218 200 355 -9 90 -49 168 -117 231 -71 66 -135 90 -234 90
-99 0 -163 -24 -234 -90 -82 -76 -115 -151 -115 -259 1 -135 62 -246 173 -317
l45 -28 -240 0 -239 0 51 30 c61 34 129 108 158 170 32 67 30 226 -2 292 -38
76 -103 141 -174 174 -53 24 -76 28 -148 29 -77 0 -92 -3 -152 -33 -166 -82
-237 -267 -172 -454 19 -56 90 -140 153 -180 l45 -28 -795 1 c-718 1 -791 2
-759 16 143 62 236 238 208 393 -26 144 -129 254 -267 286 -70 17 -101 17
-171 -2z m187 -220 c43 -33 63 -73 63 -126 0 -61 -28 -109 -81 -136 -136 -72
-285 61 -225 201 38 90 163 122 243 61z m1810 5 c71 -44 95 -161 46 -227 -47
-64 -163 -82 -230 -34 -90 64 -79 217 19 265 47 24 123 22 165 -4z m724 -2
c19 -12 45 -43 57 -69 32 -64 24 -116 -28 -172 -35 -37 -42 -40 -101 -43 -51
-3 -70 0 -97 16 -37 24 -69 72 -78 118 -8 44 30 121 75 150 47 31 125 31 172
0z"/>
<path d="M1293 4096 l-52 -53 33 -129 c19 -71 43 -156 55 -189 12 -32 21 -62
21 -64 0 -3 20 15 45 39 39 39 45 49 45 87 0 23 -5 63 -12 88 -10 35 -10 52 0
77 11 29 8 38 -34 115 -25 46 -46 82 -47 82 -1 -1 -25 -25 -54 -53z"/>
<path d="M8413 4118 c-5 -7 -26 -41 -47 -75 -36 -60 -36 -63 -22 -92 14 -27
14 -34 -4 -87 -11 -31 -20 -65 -20 -74 0 -17 95 -129 102 -120 5 6 83 258 98
316 10 41 10 41 -41 93 -29 28 -53 51 -54 51 -1 0 -7 -6 -12 -12z"/>
<path d="M1555 3939 c-11 -17 -17 -69 -8 -69 4 0 23 18 41 40 l33 40 -30 0
c-16 0 -33 -5 -36 -11z"/>
<path d="M7448 3857 c-41 -24 -46 -38 -23 -57 13 -10 19 -10 33 2 9 8 25 18
35 21 12 5 17 15 15 29 -4 30 -17 31 -60 5z"/>
<path d="M7857 3853 c-4 -21 -21 -37 -61 -61 -30 -18 -58 -37 -61 -42 -3 -5
12 -26 34 -45 54 -49 81 -108 81 -177 0 -95 -44 -164 -133 -210 -33 -17 -54
-20 -111 -16 l-71 5 -42 -66 c-25 -39 -38 -70 -33 -75 6 -6 16 -1 27 12 17 20
21 21 91 9 65 -10 72 -14 72 -34 0 -18 6 -23 25 -23 19 0 25 5 25 23 0 21 25
37 132 85 5 2 13 -9 19 -25 l11 -28 24 30 24 30 -23 17 -22 17 36 38 c20 21
51 64 69 97 18 32 41 61 51 63 11 3 19 12 19 19 0 10 -7 13 -23 9 -22 -6 -24
-2 -35 47 -24 117 -24 118 -9 118 8 0 20 6 26 14 9 11 5 20 -19 45 -18 17 -40
31 -51 31 -22 0 -24 9 -7 45 10 22 8 29 -12 50 -30 32 -46 32 -53 -2z"/>
<path d="M2085 3681 c-103 -25 -167 -107 -167 -214 0 -184 234 -276 366 -144
91 92 87 220 -12 309 -56 51 -115 66 -187 49z m107 -113 c43 -22 62 -113 32
-156 -18 -26 -65 -52 -94 -52 -34 0 -78 28 -95 60 -53 103 52 202 157 148z"/>
<path d="M3213 2663 c-51 -18 -118 -90 -133 -142 -33 -119 30 -233 149 -267
146 -43 286 58 285 206 -1 87 -48 159 -128 196 -58 27 -111 29 -173 7z m145
-128 c39 -33 48 -74 27 -118 -30 -65 -116 -78 -167 -27 -28 28 -30 36 -25 78
10 87 99 123 165 67z"/>
<path d="M7740 2643 c-14 -2 -67 -10 -117 -19 l-93 -16 0 -53 c0 -48 -3 -55
-34 -79 -19 -14 -40 -41 -47 -60 -12 -32 -14 -34 -77 -39 -36 -4 -69 -12 -74
-19 -4 -7 -15 -38 -24 -68 l-16 -55 28 -55 c15 -30 29 -57 31 -59 5 -7 56 44
222 224 198 215 262 290 254 299 -6 6 -9 6 -53 -1z"/>
<path d="M1920 2620 c0 -23 476 -510 499 -510 4 0 21 30 36 66 l28 66 -31 64
-32 64 -74 0 c-74 0 -75 0 -96 34 -11 19 -37 44 -56 55 -34 20 -35 24 -34 74
1 28 1 57 1 63 -2 24 -241 48 -241 24z"/>
<path d="M2293 2588 c-20 -26 -22 -50 -8 -77 16 -33 33 -41 81 -41 40 0 61 31
50 74 -11 43 -99 74 -123 44z"/>
<path d="M7328 2589 c-31 -18 -40 -46 -28 -84 14 -44 46 -47 82 -7 50 54 48
102 -5 102 -18 0 -40 -5 -49 -11z"/>
<path d="M3916 1724 c-14 -35 -5 -75 23 -106 l28 -32 46 18 c56 21 69 36 65
73 -3 25 -9 30 -63 45 -77 21 -92 21 -99 2z"/>
<path d="M5760 1716 c-54 -11 -55 -12 -58 -48 -3 -30 1 -40 22 -53 14 -9 42
-19 63 -22 34 -4 40 -2 56 25 19 34 22 64 7 93 -12 21 -13 21 -90 5z"/>
<path d="M3687 1616 c-65 -27 -137 -72 -137 -85 0 -19 341 -134 565 -191 66
-16 123 -30 128 -30 4 0 7 25 7 57 0 55 -1 57 -58 114 l-57 58 -69 -19 c-37
-11 -73 -24 -80 -29 -16 -14 -85 10 -92 31 -7 24 -114 118 -133 118 -9 0 -42
-11 -74 -24z"/>
<path d="M5910 1553 l-82 -77 -80 27 c-94 33 -101 30 -167 -53 -36 -45 -38
-53 -34 -97 3 -26 7 -50 9 -52 2 -2 89 22 195 53 211 62 470 156 471 171 1 12
-156 91 -198 100 -29 5 -38 -1 -114 -72z"/>
</g>
</svg>
